<svg xmlns="http://www.w3.org/2000/svg" viewBox="0 0 1800 880" style="width:100%;height:100%">
  <defs>
    <mask id="a">
      <g stroke-dashoffset="1">
        <!-- Path for letter 'A' -->
        <path d="M100 200l100-200 100 200h-50l-25-50-25 50zM200 0v200h100v-100h-50v-50h-50v-50h50v-50h-50v-50h50v-50h-50v-50h50zM0 200h50v-200h-50zM200 0h50v200h-50z"/>
        <!-- Path for letter 'r' -->
        <path d="M400 200v-100c0-27.614 22.386-50 50-50h50c27.614 0 50 22.386 50 50v150h-50v-150h-50v100c0 13.807-11.193 25-25 25h-50c-13.807 0-25-11.193-25-25v-100zM400 100h50v50h-50v-50z"/>
        <!-- Path for letter 'v' -->
        <path d="M600 200l50-100 50 100h-25l-25-50-25 50h-25zM600 0h50v200h-50z"/>
        <!-- Path for letter 'i' -->
        <path d="M800 200v-150h50v150h-50zM800 0h50v50h-50zM825 300h-50v50h50v-50z"/>
        <!-- Path for letter 'n' -->
        <path d="M1000 200v-150h50l50 100 50-100h50v150h-50v-100l-50 100h-50zM1000 50h50v50h-50v-50z"/>
        <!-- Path for letter 'd' -->
        <path d="M1200 200v-100c0-27.614 22.386-50 50-50h50c27.614 0 50 22.386 50 50v100c0 27.614-22.386 50-50 50h-50c-27.614 0-50-22.386-50-50zM1200 100h50v100h-50v-100zM1250 300h50v50h-50v-50z"/>
        <!-- Path for letter 'S' -->
        <path d="M1400 200c0-55.228 44.772-100 100-100s100 44.772 100 100c0 27.614-11.193 52.509-29.222 70.632l-20.778-20.778c14.35-14.35 23-34.326 23-55.854 0-44.183-35.817-80-80-80s-80 35.817-80 80c0 24.086 10.851 45.668 28 60.215l-20.778 20.778c-18.026-18.125-29.222-42.998-29.222-70.632zM1400 100h100c0-44.183 35.817-80 80-80s80 35.817 80 80c0 21.014-8.187 40.032-21.438 54.376l21.438 21.438c15.86-15.86 26-38.128 26-62.814 0-55.228-44.772-100-100-100s-100 44.772-100 100c0 24.686 10.14 46.954 26 62.814l-21.438 21.438c-13.251-14.344-21.438-33.362-21.438-54.376h-100z"/>
      </g>
    </mask>
  </defs>
  
  <!-- Displaying the masked text -->
  <text x="0" y="200" font-size="200" fill="black" mask="url(#a)">ArvindSR</text>
</svg>
